<svg xmlns="http://www.w3.org/2000/svg" xml:space="preserve" viewBox="0 0 274 242"><path xmlns="http://www.w3.org/2000/svg" fill="#32d27d" fill-rule="evenodd" d="M241.82 82.702v-44.5a9.672 9.672 0 0 0-2.836-6.834L210.452 2.826A9.686 9.686 0 0 0 203.617 0H38.203a9.67 9.67 0 0 0-6.835 2.826L2.836 31.368A9.672 9.672 0 0 0 0 38.203v165.414a9.655 9.655 0 0 0 2.836 6.835l28.532 28.542a9.67 9.67 0 0 0 6.835 2.826h165.414a9.686 9.686 0 0 0 6.835-2.826l28.532-28.542a9.615 9.615 0 0 0 2.836-6.835v-44.51a9.633 9.633 0 0 1 2.836-6.824l27.916-27.927a4.874 4.874 0 0 0 0-6.892l-27.916-27.917a9.694 9.694 0 0 1-2.836-6.845" font-family="none" font-size="none" font-weight="none" text-anchor="none"/><path xmlns="http://www.w3.org/2000/svg" fill="#fff" fill-rule="evenodd" d="M91.453 109.123c1.783-7.38 5.049-13.56 9.686-18.392 5.365-5.585 12.417-8.291 21.54-8.291 8.988 0 16.04 2.68 21.528 8.212 4.72 4.753 7.724 10.959 8.945 18.485h-61.7zm64.045-40.098c-9.069-6.615-20.305-9.969-33.408-9.969-17.754 0-32.146 6.351-42.766 18.908-10.427 12.305-15.71 27.792-15.71 46 0 18.709 5.75 34.13 17.068 45.868 11.388 11.83 26.823 17.824 45.826 17.824 19.647 0 36.44-7.83 49.927-23.303l2.347-2.68-18.276-16.227-2.58 3.076c-8.821 10.589-19.098 15.738-31.418 15.738-10.784 0-19.222-3.037-25.767-9.282-5.748-5.492-9.288-13.045-10.55-22.472h89.18l.344-11.632c0-10.034-1.77-19.567-5.283-28.374-3.608-9.03-9.974-16.94-18.934-23.475z" font-family="none" font-size="none" font-weight="none" text-anchor="none"/></svg>